<?xml version="1.0" standalone="no"?><!DOCTYPE svg PUBLIC "-//W3C//DTD SVG 1.1//EN" "http://www.w3.org/Graphics/SVG/1.1/DTD/svg11.dtd"><svg t="1545962813823" class="icon" style="" viewBox="0 0 1024 1024" version="1.1" xmlns="http://www.w3.org/2000/svg" p-id="4621" xmlns:xlink="http://www.w3.org/1999/xlink" width="200" height="200"><defs><style type="text/css"></style></defs><path d="M512 128c212 0 384 172 384 384s-172 384-384 384-384-172-384-384 172-384 384-384m0-64C264.8 64 64 264.8 64 512s200.8 448 448 448 448-200.8 448-448S759.2 64 512 64z m32 192h-64v64h64v-64z m0 448V384h-32.8L384 418.4l16.8 61.6 79.2-21.6V704H384v64h256v-64H544z" p-id="4622"></path></svg>